<?xml version="1.0" standalone="no"?>
<!DOCTYPE svg PUBLIC "-//W3C//DTD SVG 20010904//EN"
 "http://www.w3.org/TR/2001/REC-SVG-20010904/DTD/svg10.dtd">
<svg version="1.0" xmlns="http://www.w3.org/2000/svg"
 width="400.000000pt" height="400.000000pt" viewBox="0 0 400.000000 400.000000"
 preserveAspectRatio="xMidYMid meet">
<metadata>
Created by potrace 1.11, written by Peter Selinger 2001-2013
</metadata>
<g transform="translate(0.000000,400.000000) scale(0.100000,-0.100000)"
fill="#000000" stroke="none">
<path d="M1750 3889 c-802 -103 -1452 -704 -1614 -1491 -49 -238 -49 -518 0
-756 150 -733 733 -1316 1466 -1466 238 -49 518 -49 756 0 733 150 1316 733
1466 1466 49 238 49 518 0 756 -150 733 -733 1316 -1466 1466 -172 35 -442 46
-608 25z m20 -684 c39 -20 43 -42 31 -150 -17 -144 -23 -133 62 -128 284 14
647 37 837 53 213 18 227 18 260 2 58 -28 68 -123 16 -157 -31 -20 -529 -59
-1124 -88 -42 -2 -67 -8 -73 -18 -5 -7 -9 -94 -9 -193 0 -161 2 -178 16 -172
109 42 358 91 517 102 l93 7 22 38 c32 56 62 73 116 65 57 -9 78 -33 80 -91
l1 -47 70 -23 c236 -76 386 -200 488 -402 64 -126 93 -340 67 -500 -38 -239
-173 -431 -376 -535 -171 -88 -327 -126 -546 -135 l-136 -6 -27 27 c-22 22
-26 33 -21 59 11 56 34 69 140 78 410 34 651 182 742 454 35 106 44 269 20
365 -54 216 -210 379 -431 450 -38 13 -70 19 -72 13 -2 -5 -42 -76 -89 -159
-116 -201 -233 -378 -373 -563 -64 -84 -120 -159 -125 -166 -6 -8 2 -30 24
-66 45 -74 51 -135 17 -175 -22 -25 -32 -29 -76 -29 -46 0 -54 4 -93 42 l-43
42 -59 -50 c-146 -124 -246 -180 -358 -199 -79 -14 -177 -2 -242 30 -147 70
-223 276 -182 487 41 213 195 467 372 616 44 37 123 95 176 129 l97 63 1 207
c0 113 3 213 6 222 6 14 -22 16 -270 16 -313 0 -336 4 -355 62 -13 40 -1 93
26 114 14 10 80 13 311 14 225 0 294 3 297 13 2 6 9 66 15 132 10 108 13 122
36 143 30 26 81 29 124 7z"/>
<path d="M2196 2289 c-102 -13 -250 -45 -343 -74 l-83 -26 0 -67 c0 -125 55
-517 79 -559 17 -31 297 380 450 660 l43 77 -39 -1 c-21 -1 -69 -6 -107 -10z"/>
<path d="M1515 2053 c-150 -108 -261 -231 -332 -368 -65 -126 -87 -205 -88
-311 0 -81 3 -96 30 -149 35 -68 77 -101 140 -110 96 -15 240 61 369 194 55
58 67 76 62 94 -39 132 -88 422 -102 600 -4 53 -11 87 -18 87 -6 0 -33 -17
-61 -37z"/>
</g>
</svg>
