<?xml version="1.0" encoding="utf-8"?>
<!-- Generator: Adobe Illustrator 22.1.0, SVG Export Plug-In . SVG Version: 6.00 Build 0)  -->
<svg version="1.1" id="Layer_1" xmlns="http://www.w3.org/2000/svg" xmlns:xlink="http://www.w3.org/1999/xlink" x="0px" y="0px"
	 viewBox="0 0 100 100" style="enable-background:new 0 0 100 100;" xml:space="preserve">
<style type="text/css">
	.st0{fill:#424242;}
</style>
<title>github</title>
<g id="Layer_4">
	<path class="st0" d="M61.6,84.5v-6.8c0-2.8-1.1-5.5-3-7.6c1.6-0.3,3.1-0.5,4.6-0.8c3-0.6,5.8-1.7,8.4-3.4c3-2,5.3-5,6.5-8.4
		c1.6-4.5,2.1-9.3,1.3-14c-0.5-3.1-1.9-5.9-4-8.3c-0.3-0.3-0.4-0.8-0.3-1.2c1.1-3.7,0.9-7.7-0.5-11.3c-0.2-0.5-0.4-0.5-0.8-0.5
		c-2.3,0.1-4.5,0.6-6.5,1.7c-1.7,0.8-3.4,1.8-5,2.9c-0.3,0.2-0.8,0.3-1.1,0.2c-5.3-1.4-10.9-1.7-16.4-1.1c-1.9,0.2-3.8,0.5-5.6,1
		c-0.5,0.2-1,0.1-1.4-0.3c-2.6-1.8-5.4-3.1-8.4-4c-1-0.3-2.1-0.4-3.1-0.4c-0.4,0-0.7,0.2-0.8,0.6c-1.4,3.6-1.6,7.6-0.4,11.4
		c0.1,0.2,0.1,0.6-0.1,0.7c-3.4,4-5,9.2-4.4,14.5c0.2,3.2,0.9,6.3,2.1,9.3c2.2,4.8,6.5,8.4,11.7,9.8c2.4,0.7,4.8,1.2,7.2,1.4
		c-1.6,1.6-2.6,3.6-2.8,5.8c0,0.2-0.2,0.4-0.4,0.5c-2.8,1.4-6.1,1.4-9,0.1c-1.7-0.9-3.1-2.2-4-3.8c-1.2-2.1-3-3.7-5.2-4.6
		c-1-0.4-2.1-0.5-3.1-0.4c-0.5-0.1-0.9,0.2-1.1,0.7c-0.1,0.5,0.2,0.7,0.5,1c0.3,0.3,0.7,0.6,1.1,0.9c2.4,1.6,4.3,3.9,5.2,6.6
		c1.4,3.4,4.5,5.8,8.2,6.2c2.4,0.4,4.8,0.4,7.1-0.1c0.4,0,0.5,0,0.5,0.4v7.9c0.1,1.3-0.8,2.4-2.1,2.5c-0.4,0-0.8,0-1.2-0.2
		c-5.4-1.7-10.3-4.5-14.7-8.1C13,79.4,7.6,71,5.2,61.6c-3.8-13.8-1-28.7,7.7-40.1C19.6,12.5,29.5,6.2,40.6,4c3.9-0.9,7.9-1.2,11.9-1
		c9.6,0.5,18.8,4,26.3,10c7.9,6.2,13.6,14.9,16.2,24.6c1.3,4.8,1.8,9.9,1.4,14.9c-0.6,10.1-4.6,19.8-11.3,27.4
		c-5.3,6.2-12.3,10.9-20,13.5c-1.9,0.7-3.1,0-3.5-1.7C61.7,89.4,61.7,87,61.6,84.5z"/>
	<path class="st0" d="M37,79.2c-0.3-0.1-0.8-0.1-0.8-0.6s0.6-0.8,1.1-0.8s0.8,0.2,0.8,0.6C38,78.9,37.5,79.3,37,79.2z"/>
	<path class="st0" d="M33.7,79.7c-0.5,0-1-0.2-1-0.7s0.5-0.7,1-0.7s1,0,1,0.7S34.1,79.6,33.7,79.7z"/>
	<path class="st0" d="M27.5,76.7c0,0.3-0.2,0.6-0.5,0.6c0,0,0,0,0,0c-0.3,0-1.2-0.7-1.2-1.1c0-0.3,0.2-0.5,0.5-0.6c0,0,0,0,0,0h0.1
		C26.9,75.7,27.4,76.1,27.5,76.7z"/>
	<path class="st0" d="M30,79.1c-0.5,0-1-0.3-1.1-0.8c-0.1-0.6,0.3-0.6,0.7-0.6s1.3,0.4,1.2,0.9S30.5,79.1,30,79.1z"/>
	<path class="st0" d="M25.1,74.1c0,0.3-0.1,0.6-0.5,0.6c-0.6,0-1-0.4-1-1c-0.1-0.2,0.1-0.5,0.3-0.6c0,0,0,0,0,0c0.1,0,0.1,0,0.2,0
		C24.8,73.1,25,73.5,25.1,74.1z"/>
	<path class="st0" d="M23.2,71.5c0,0.3-0.1,0.6-0.4,0.5c-0.5,0-0.9-0.4-0.9-0.9c0,0,0,0,0,0c0-0.3,0.1-0.5,0.5-0.4
		C22.8,70.7,23.1,71,23.2,71.5z"/>
	<path class="st0" d="M20.4,69c0.3,0.1,0.7,0.2,0.8,0.6c0,0.2-0.1,0.4-0.3,0.4c0,0,0,0,0,0h-0.1c-0.4,0-0.8-0.2-0.8-0.6
		C19.9,69.2,20.1,69,20.4,69z"/>
</g>
</svg>
