<?xml version="1.0" encoding="utf-8"?>
<!-- Generator: Adobe Illustrator 22.1.0, SVG Export Plug-In . SVG Version: 6.00 Build 0)  -->
<svg version="1.1" id="Layer_1" xmlns="http://www.w3.org/2000/svg" xmlns:xlink="http://www.w3.org/1999/xlink" x="0px" y="0px"
	 viewBox="0 0 100 100" enable-background="new 0 0 100 100" xml:space="preserve">
<circle id="XMLID_2_" fill="#C6C6C6" stroke="#424242" stroke-width="1.5981" stroke-miterlimit="10" cx="70.6" cy="19.4" r="3.3"/>
<circle id="XMLID_85_" fill="#AC2743" stroke="#424242" stroke-width="4.0653" stroke-miterlimit="10" cx="48.8" cy="53.3" r="39.7"/>
<path id="XMLID_84_" fill="#C13356" d="M86.1,53.5c0,19.9-11.2,34.2-31.3,37c-20,2.8-41.7-17.1-41.7-37s16.3-38,36.5-38
	S86.1,33.7,86.1,53.5z"/>
<path id="XMLID_83_" fill="#EA506D" d="M85.1,54.3c0,19.6-11.2,33.7-31.3,36.4c-20,2.7-41.7-16.9-41.7-36.4s16.3-37.5,36.5-37.7
	C72.3,16.4,85.1,34.7,85.1,54.3z"/>
<g opacity="0.31">
	<defs>
		<circle id="XMLID_1_" opacity="0.31" cx="48.8" cy="53.3" r="37.7"/>
	</defs>
	<clipPath id="XMLID_4_">
		<use xlink:href="#XMLID_1_"  overflow="visible"/>
	</clipPath>
	<g clip-path="url(#XMLID_4_)">
		<circle fill="#B33548" cx="22.4" cy="37.7" r="18.9"/>
		<circle fill="#B33548" cx="41.3" cy="72.5" r="12"/>
		<circle fill="#B33548" cx="84.5" cy="68.9" r="12.7"/>
	</g>
</g>
<circle id="XMLID_82_" fill="#84EB68" stroke="#424242" stroke-width="3.4555" stroke-miterlimit="10" cx="53.5" cy="14.5" r="6"/>
<circle id="XMLID_76_" fill="#424242" cx="49.7" cy="58.7" r="1.6"/>
<circle id="XMLID_75_" fill="#424242" cx="69" cy="37.7" r="1.6"/>
<path id="XMLID_73_" fill="none" stroke="#424242" stroke-width="2.0326" stroke-linecap="round" stroke-linejoin="round" stroke-miterlimit="10" d="
	M22.4,72.6c0,2.4,1.5,4.3,3.4,4.3"/>
<circle id="XMLID_72_" fill="#424242" cx="31.7" cy="8.9" r="1"/>
<circle id="XMLID_71_" fill="#424242" cx="60.9" cy="7.9" r="1"/>
<circle id="XMLID_70_" fill="#424242" cx="79.8" cy="18.2" r="1"/>
<circle id="XMLID_69_" fill="#424242" cx="75.4" cy="5.6" r="1.6"/>
<path id="XMLID_109_" fill="none" stroke="#424242" stroke-width="4.0653" stroke-linecap="round" stroke-linejoin="round" stroke-miterlimit="10" d="
	M78,26c5.9-1.8,9.5-1.4,11.8,1.2c6,6.6-5.3,26.6-25.2,44.6S23.6,98.9,17.6,92.3c-2.7-3-3-6.4,0.6-13.4"/>
<circle id="XMLID_81_" fill="#95DEF9" stroke="#424242" stroke-width="2.9322" stroke-miterlimit="10" cx="44.6" cy="84.9" r="6.6"/>
<line id="XMLID_74_" fill="none" stroke="#424242" stroke-width="3.4555" stroke-linecap="round" stroke-linejoin="round" stroke-miterlimit="10" x1="60.6" y1="66.3" x2="78.3" y2="47.4"/>
<path id="XMLID_77_" fill="none" stroke="#424242" stroke-width="3.4555" stroke-linecap="round" stroke-linejoin="round" stroke-miterlimit="10" d="
	M20.7,39.9c2-9.5,8.8-16,15.3-14.7"/>
</svg>
