<svg xmlns="http://www.w3.org/2000/svg" viewBox="0 0 94 94"><defs><style>.cls-1{fill:#32c890;}.cls-2{fill:#f2f2f2;}</style></defs><title>n3_icon</title><g id="Layer_2" data-name="Layer 2"><g id="cards"><circle class="cls-1" cx="47" cy="47" r="47"/><path class="cls-2" d="M26.83,35.69h4.22l12.36,16.4V35.69h4.51v23.6H43.69L31.33,43V59.29h-4.5Z"/><path class="cls-2" d="M59,59.79a15.36,15.36,0,0,1-3.61-.4,9,9,0,0,1-2.79-1.12L53,54.54a11.59,11.59,0,0,0,5.81,1.52,5.1,5.1,0,0,0,3.34-1,3.37,3.37,0,0,0,1.19-2.73,3.28,3.28,0,0,0-1.15-2.67,4.83,4.83,0,0,0-3.23-1,11.45,11.45,0,0,0-2.08.25l-1.08-2.48,6-6.46H53V36.19h14.1v3.29L61.4,45.66a7.89,7.89,0,0,1,3.44,1A5.88,5.88,0,0,1,67.1,49a7,7,0,0,1,.79,3.37,6.74,6.74,0,0,1-2.38,5.45A9.74,9.74,0,0,1,59,59.79Z"/></g></g></svg>