<svg xmlns="http://www.w3.org/2000/svg" viewBox="0 0 94 94"><defs><style>.cls-1{fill:#5b81ff;}.cls-2{fill:#f2f2f2;}</style></defs><title>n5_icon</title><g id="Layer_2" data-name="Layer 2"><g id="cards"><circle class="cls-1" cx="47" cy="47" r="47"/><path class="cls-2" d="M26.83,35.69h4.22l12.36,16.4V35.69h4.51v23.6H43.69L31.33,43V59.29h-4.5Z"/><path class="cls-2" d="M59,59.79a16.53,16.53,0,0,1-3.62-.4,10,10,0,0,1-2.88-1l.38-3.79a10.77,10.77,0,0,0,2.76,1.11,11.89,11.89,0,0,0,3,.38A5.49,5.49,0,0,0,62.19,55a3.61,3.61,0,0,0,1.29-2.95A3.3,3.3,0,0,0,62,49.26a6.37,6.37,0,0,0-3.83-1,16.66,16.66,0,0,0-2.27.17c-.87.11-1.68.25-2.42.42L54,36.19H66.52V40h-8.7l-.18,4.81a11.58,11.58,0,0,1,2-.18,8.87,8.87,0,0,1,6.07,2A6.75,6.75,0,0,1,68,52a7.2,7.2,0,0,1-2.42,5.7A9.53,9.53,0,0,1,59,59.79Z"/></g></g></svg>