<svg xmlns="http://www.w3.org/2000/svg" viewBox="0 0 94 94"><defs><style>.cls-1{fill:#bd63d3;}.cls-2{fill:#f2f2f2;}</style></defs><title>reading_icon</title><g id="Layer_2" data-name="Layer 2"><g id="cards"><circle class="cls-1" cx="47" cy="47" r="47"/><path class="cls-2" d="M42.93,37.28v1.85H31.58V37.28ZM42,50.74v9.67H34.88V62H33V50.74Zm-9-7.15V41.77h9v1.82Zm0,4.48V46.26h9v1.81ZM41.84,32.9v1.81H33.16V32.9ZM40.06,52.59H34.88v5.94h5.18ZM51.14,49c0,.23-.26.4-.66.46-.4,6.11-1.42,10.46-7,12.9a6,6,0,0,0-1.39-1.78c5-2,6-5.8,6.24-11.84Zm.4-8.87V36.76H43.78V34.84h7.76V31.68l2.83.16c0,.23-.19.4-.62.46v2.54h8v1.92h-8v3.33h7V42H44.9V40.09ZM61.63,50.45H59.55v-4H46v4h-2V44.57H61.63ZM56.19,59c0,.79.13.92.89.92h2.44c.79,0,.92-.56,1-4.45a6,6,0,0,0,1.88.86c-.16,4.48-.72,5.57-2.67,5.57H56.81c-2.17,0-2.7-.63-2.7-2.9V48.77l2.74.16c0,.23-.2.4-.66.46Z"/></g></g></svg>